<?xml version="1.0" encoding="UTF-8" standalone="no"?>
<svg width="200px" height="164px" viewBox="0 0 200 164" version="1.1" xmlns="http://www.w3.org/2000/svg" xmlns:xlink="http://www.w3.org/1999/xlink">
    <!-- Generator: Sketch 3.8.3 (29802) - http://www.bohemiancoding.com/sketch -->
    <title>Twitter_Bird</title>
    <desc>Created with Sketch.</desc>
    <defs></defs>
    <g id="Page-1" stroke="none" stroke-width="1" fill="none" fill-rule="evenodd">
        <g id="Twitter_Bird" fill="#FFFFFF">
            <path d="M200,19.974 C192.642,23.238 184.733,25.443 176.434,26.435 C184.905,21.357 191.412,13.316 194.475,3.734 C186.546,8.437 177.765,11.851 168.418,13.691 C160.934,5.716 150.27,0.734 138.468,0.734 C115.808,0.734 97.435,19.105 97.435,41.765 C97.435,44.981 97.798,48.113 98.497,51.116 C64.395,49.405 34.161,33.069 13.923,8.244 C10.391,14.304 8.367,21.352 8.367,28.872 C8.367,43.108 15.611,55.667 26.621,63.025 C19.895,62.812 13.568,60.966 8.036,57.893 C8.032,58.064 8.032,58.236 8.032,58.409 C8.032,78.289 22.176,94.873 40.947,98.643 C37.504,99.581 33.879,100.082 30.137,100.082 C27.493,100.082 24.923,99.824 22.417,99.346 C27.639,115.647 42.792,127.511 60.748,127.841 C46.705,138.847 29.013,145.406 9.788,145.406 C6.476,145.406 3.21,145.212 0,144.832 C18.159,156.475 39.727,163.269 62.899,163.269 C138.372,163.269 179.645,100.745 179.645,46.522 C179.645,44.743 179.605,42.974 179.526,41.213 C187.543,35.429 194.499,28.202 200,19.974 L200,19.974 Z" id="Shape"></path>
        </g>
    </g>
</svg>