<?xml version="1.0" encoding="UTF-8" standalone="no"?>
<svg width="90px" height="90px" viewBox="0 0 90 90" version="1.1" xmlns="http://www.w3.org/2000/svg" xmlns:xlink="http://www.w3.org/1999/xlink">
    <!-- Generator: Sketch 3.8.3 (29802) - http://www.bohemiancoding.com/sketch -->
    <title>playbutton</title>
    <desc>Created with Sketch.</desc>
    <defs></defs>
    <g id="Page-1" stroke="none" stroke-width="1" fill="none" fill-rule="evenodd">
        <g id="playbutton">
            <path d="M45,0 C20.147,0 0,20.147 0,45 C0,69.853 20.147,90 45,90 C69.853,90 90,69.853 90,45 C90,20.147 69.853,0 45,0 L45,0 L45,0 Z" id="Shape" fill="#000000" opacity="0.20364972"></path>
            <path d="M38.343,27.13 C34.841,25.197 32.002,26.781 32.002,30.666 L32.002,59.332 C32.002,63.219 34.841,64.801 38.343,62.869 L64.373,48.5 C67.876,46.567 67.876,43.432 64.373,41.499 L38.343,27.13 L38.343,27.13 Z" id="Shape" fill="#FFFFFF"></path>
        </g>
    </g>
</svg>