<?xml version="1.0" encoding="UTF-8" standalone="no"?>
<svg width="90px" height="90px" viewBox="0 0 90 90" version="1.1" xmlns="http://www.w3.org/2000/svg" xmlns:xlink="http://www.w3.org/1999/xlink">
    <!-- Generator: Sketch 3.8.3 (29802) - http://www.bohemiancoding.com/sketch -->
    <title>reculebutton</title>
    <desc>Created with Sketch.</desc>
    <defs></defs>
    <g id="Page-1" stroke="none" stroke-width="1" fill="none" fill-rule="evenodd">
        <g id="reculebutton">
            <path d="M45,0 C20.147,0 0,20.147 0,45 C0,69.853 20.147,90 45,90 C69.853,90 90,69.853 90,45 C90,20.147 69.853,0 45,0 L45,0 L45,0 Z" id="Shape" fill="#000000" opacity="0.20364972"></path>
            <g id="Group-2" transform="translate(44.500000, 45.500000) scale(-1, 1) translate(-44.500000, -45.500000) translate(25.000000, 33.000000)" fill="#FFFFFF">
                <path d="M3.53301951,0.541273844 C1.58180766,-0.728435541 8.8817842e-15,0.312029883 8.8817842e-15,2.86392898 L8.8817842e-15,21.693463 C8.8817842e-15,24.2466758 1.58180766,25.2858275 3.53301951,24.016775 L18.0361732,14.578361 C19.9879423,13.3086517 19.9879423,11.2493972 18.0361732,9.97968778 L3.53301951,0.541273844 L3.53301951,0.541273844 Z" id="Shape"></path>
                <path d="M23.0330195,0.541273844 C21.0818077,-0.728435541 19.5,0.312029883 19.5,2.86392898 L19.5,21.693463 C19.5,24.2466758 21.0818077,25.2858275 23.0330195,24.016775 L37.5361732,14.578361 C39.4879423,13.3086517 39.4879423,11.2493972 37.5361732,9.97968778 L23.0330195,0.541273844 L23.0330195,0.541273844 Z" id="Shape"></path>
            </g>
        </g>
    </g>
</svg>